<svg xmlns="http://www.w3.org/2000/svg" width="256" height="256"><path fill="#1976D2" fill-opacity=".016" fill-rule="evenodd" d="M0 128.004v128.004l128.25-.254 128.25-.254.254-127.75L257.008 0H0v128.004m.485.496c0 70.4.119 99.053.265 63.672.146-35.38.146-92.98 0-128C.604 29.153.485 58.1.485 128.5"/><path fill="#1976D2" fill-opacity=".442" fill-rule="evenodd" d="M20 100v100h8v14.532c0 16.433 1.014 20.39 5.872 22.902 3.826 1.978 6.43 1.978 10.256 0 4.858-2.512 5.872-6.469 5.872-22.902V200h8.172l-.336 16.25c-.314 15.164-.503 16.541-2.828 20.603-3.223 5.63-8.583 8.464-16.008 8.464-9.499 0-15.322-4.291-18.066-13.311-.445-1.464-.798 3.002-.848 10.744L20 256h46v-43h3.094c2.252 0 3.235.544 3.616 2 .648 2.476.869 2.476 4.017 0 1.676-1.318 4.057-2 6.985-2 15.209 0 16.311 27.617 1.281 32.12-2.837.85-4.365.752-7.291-.471L74 243.102V256h161l-.102-12.75c-.067-8.252-.373-11.612-.869-9.525-2.099 8.837-10.306 13.602-19.316 11.217-10.057-2.662-14.447-13.322-9.749-23.671 2.468-5.437 7.02-8.262 13.318-8.267 8.808-.007 13.94 3.666 15.747 11.271.421 1.774.812-47.962.869-110.525L235 0H20v100m169 107.107c0 7.347-.164 8.035-1.75 7.338-3.296-1.448-9.313-1.661-12.273-.435-10.15 4.204-10.499 26.367-.482 30.552 4.016 1.678 10.258.646 12.511-2.069 1.724-2.078 2.994-1.863 2.994.507 0 1.556.667 2 3 2h3v-46h-7v8.107m-90-4.153c0 2.952.007 2.955 6.75 3.25l6.75.296.272 19.25.271 19.25h8.034l-.125-19.25-.125-19.25 6.587-.296c6.562-.294 6.586-.306 6.586-3.25V200H99v2.954m39.192 12.07c-8.119 4.95-9.483 19.544-2.448 26.196 7.383 6.982 20.425 5.134 24.923-3.531 2.328-4.483 2.183-13.538-.284-17.811-3.828-6.627-15.202-9.115-22.191-4.854m-61.442 4.548c-2.665 1.446-2.75 1.754-2.75 9.925 0 9.147.817 10.503 6.323 10.503 4.794 0 7.023-3.067 7.483-10.3.382-6 .197-6.788-2.148-9.133-2.911-2.91-4.956-3.139-8.908-.995m64.705.883C139.386 222.523 139 223.866 139 229s.386 6.477 2.455 8.545c2.932 2.933 7.386 3.214 10.533.666 2.407-1.949 3.766-9.072 2.61-13.677-1.618-6.446-8.608-8.615-13.143-4.079m36 0c-2.107 2.106-2.455 3.383-2.455 9 0 5.212.407 6.952 2 8.545 2.571 2.571 6.039 2.544 9.365-.073 2.421-1.904 2.635-2.671 2.635-9.443 0-6.483-.268-7.558-2.223-8.927-3.196-2.239-6.504-1.921-9.322.898m36 0c-3.328 3.327-3.544 12.891-.382 16.91 2.494 3.172 7.558 3.564 10.915.846 2.407-1.949 3.766-9.072 2.61-13.677-1.618-6.446-8.608-8.615-13.143-4.079"/><path fill="#1976D2" fill-opacity=".286" fill-rule="evenodd" d="M20 100v100h9v15.923c0 15.672.041 15.972 2.589 19C33.821 237.576 34.843 238 39 238s5.179-.424 7.411-3.077c2.548-3.028 2.589-3.328 2.589-19V200h9l-.022 15.75c-.028 20.371-1.74 24.746-11.232 28.712-4.696 1.962-10.796 1.962-15.492 0-4.958-2.072-7.188-4.204-9.373-8.962l-1.837-4-.022 12.25L20 256h46v-43h3.5c2.872 0 3.5.371 3.5 2.068v2.068l2.99-2.129c6.956-4.953 14.7-3.105 18.067 4.309 3.913 8.62 1.357 20.632-5.249 24.66-3.952 2.409-9.518 2.616-12.585.467L74 242.887V256h161l-.039-11.25c-.036-10.226-.161-10.977-1.373-8.25-2.551 5.742-8.463 9.5-14.941 9.5-4.88 0-11.708-3.944-13.823-7.984-2.224-4.248-2.409-12.984-.36-16.947 6.096-11.788 23.81-11.526 29.124.431 1.122 2.523 1.34-14.85 1.373-109.25L235 0l-39.75.116C173.387.18 156.4.43 157.5.672c7.707 1.696 9.308 4.281 5.099 8.235l-2.401 2.256-42.849.168c-47.536.187-46.644.068-51.52 6.904L63.5 21.5v42.177c0 41.228.047 42.24 2.092 45 1.151 1.553 3.58 3.836 5.398 5.073 3.295 2.243 3.435 2.25 44.257 2.25 45.259 0 45.498-.031 50.023-6.373 2.019-2.831 2.26-4.513 2.55-17.742l.32-14.616 3.859-3.768C178.475 67.178 179 68.23 179 87.526c0 21.383-.752 24.374-7.928 31.535-3.969 3.961-6.866 5.917-10.072 6.8-3.341.92-15.572 1.162-47.5.939-41.884-.292-43.104-.356-47-2.462-5.174-2.797-9.935-7.807-12.199-12.838-1.617-3.592-1.834-8.032-2.12-43.5-.176-21.725-.037-41.814.308-44.642.931-7.629 5.795-15.111 12.38-19.046C67.815 2.551 71.412.929 72.863.705 74.313.482 63.013.232 47.75.15L20 0v100m132.037-63.525L121.5 66.949l-13.075-12.974c-15.951-15.828-15.723-15.771-25.522-6.311-10.933 10.554-11.397 9.421 14.4 35.117C115.333 100.74 119.057 104 121.539 104c2.526 0 8.303-5.37 41.697-38.764C196.512 31.959 202 26.059 202 23.558c0-2.285-1.577-4.49-7.323-10.235C189.666 8.311 186.601 6 184.965 6c-1.8 0-9.932 7.526-32.928 30.475M189 206.389v8.509l-3.662-1.53c-6.596-2.756-14.118.467-16.959 7.268-1.765 4.224-1.774 13.495-.017 17.646 2.999 7.085 9.688 9.457 16.563 5.874 3.28-1.71 4.154-1.841 4.793-.721.43.753 2.132 1.526 3.782 1.717l3 .348v-47l-3.75-.31-3.75-.311v8.51m-90.813-3.139.313 3.25 6.729.295 6.728.295.272 19.123.271 19.122h8l.271-19.122.272-19.123 6.728-.295 6.729-.295.313-3.25.314-3.25H97.873l.314 3.25m43.432 9.733C135.09 215.054 131 221.307 131 229.216c0 7.156 2.505 11.686 8.074 14.599 7.737 4.048 15.953 2.048 21.364-5.2 1.613-2.161 2.062-4.253 2.062-9.615 0-7.301-1.422-10.376-6.562-14.182-2.914-2.159-10.31-3.106-14.319-1.835m37.745 6.165c-2.916 1.442-4.364 5.021-4.364 10.788 0 6.236 2.375 9.415 6.937 9.285 5.543-.158 7.063-2.471 7.063-10.754 0-4.575-.46-7.604-1.256-8.264-2.028-1.683-6.079-2.193-8.38-1.055m-103.709 1.681C74.441 222.17 74 224.555 74 229.772c0 6.218.28 7.311 2.223 8.671 3.056 2.141 5.205 1.953 8.32-.726 3.404-2.928 4.35-9.643 2.113-14.997-1.416-3.391-1.899-3.72-5.45-3.72-2.504 0-4.487.653-5.551 1.829m65.854.161c-2.526 2.792-3.149 10.871-1.138 14.761 3.209 6.206 11.834 4.763 13.86-2.319 1.099-3.838.094-10.416-1.934-12.656-2.242-2.478-8.463-2.355-10.788.214m72 0c-2.526 2.792-3.149 10.871-1.138 14.761 3.209 6.206 11.834 4.763 13.86-2.319 1.099-3.838.094-10.416-1.934-12.656-2.242-2.478-8.463-2.355-10.788.214"/><path fill="#1976D2" fill-opacity=".82" fill-rule="evenodd" d="M20 99.5V199h8.868l.316 17.089.316 17.089 2.806 2.411c3.805 3.27 9.583 3.27 13.388 0l2.806-2.411.316-17.089.316-17.089H58v16.532c0 11.813-.393 17.451-1.377 19.75-1.665 3.892-6.107 8.207-9.938 9.654-3.618 1.367-11.752 1.367-15.37 0-3.719-1.405-8.234-5.709-9.898-9.436-1.215-2.722-1.342-1.912-1.378 8.75L20 256h45.961l.269-21.75c.268-21.569.288-21.753 2.475-22.064 1.265-.18 2.923.524 3.888 1.652 1.658 1.936 1.729 1.937 4.795.067 6.513-3.971 14.255-1.396 17.233 5.731 1.766 4.225 1.773 13.484.015 17.693-.75 1.795-2.855 4.519-4.677 6.052-2.809 2.364-4.009 2.726-7.886 2.381-2.515-.224-5.36-.76-6.323-1.192-1.561-.699-1.75-.125-1.75 5.323V256h161l-.023-10.75c-.022-10.595-.046-10.703-1.64-7.468-2.51 5.092-6.809 7.592-13.794 8.021-5.065.312-6.601-.007-9.489-1.969-5.112-3.472-7.387-8.042-7.387-14.834 0-7.11 2.424-11.638 7.889-14.733 7.635-4.325 18.024-1.765 22.22 5.475l2.178 3.758.023-111.75L235 0l-38.25.039c-33.167.034-37.834.22-35.12 1.401 4.794 2.087 5.005 3.392 1.166 7.231l-3.455 3.455-42.162-.093c-45.672-.101-44.912-.184-50.179 5.452l-2.5 2.674-.281 42.41c-.311 46.945-.36 46.545 6.08 50.471 3.042 1.856 5.314 1.953 45.816 1.956 41.705.004 42.672-.041 45.27-2.084 4.882-3.84 5.615-6.646 5.615-21.494V77.737l4.382-4.382C178.62 66.117 179 66.904 179 89.118c0 21.608-.829 24.784-8.207 31.45-7.888 7.126-6.34 6.932-55.293 6.932-43.434 0-44.053-.028-48.116-2.202-6.475-3.464-10.022-6.931-12.806-12.518L52 107.607V64.67c0-30.678.346-44.113 1.211-47.054C54.718 12.494 64.046 2.856 69 1.302c2.752-.863-2.114-1.12-22.75-1.2L20 0v99.5m131.519-63.503-30.057 29.998-11.481-11.567c-13.352-13.452-15.87-15.131-20.082-13.386C85.328 42.935 75 54.549 75 57.795c0 2.213 4.068 6.787 21.758 24.464C115.417 100.902 118.944 104 121.513 104c2.613 0 7.942-4.962 41.611-38.75 21.238-21.312 38.85-39.449 39.138-40.302.93-2.757-1.851-7.315-8.053-13.198-9.958-9.447-7.569-10.804-42.69 24.247M188 206.035c0 7.908-.034 8.017-2.146 6.887-1.207-.646-4.147-.924-6.716-.634-10.791 1.216-16.097 15.251-10.4 27.506 2.774 5.967 10.777 8.019 16.844 4.319 3.017-1.84 3.108-1.84 4.259.004.726 1.162 2.321 1.883 4.167 1.883H197v-48h-9v8.035M98 203v4h14v39h9v-39h14v-8H98v4m40.985 11.25c-5.865 2.973-8.318 7.322-8.318 14.75 0 6.792 2.275 11.362 7.387 14.834 2.888 1.962 4.424 2.281 9.489 1.969 10.219-.628 15.457-6.327 15.457-16.818 0-6.98-3.042-12.343-8.5-14.985-5.38-2.604-10.032-2.529-15.515.25m-62.762 6.307c-1.949 1.365-2.223 2.448-2.223 8.8 0 8.325.84 9.643 6.143 9.643 5.13 0 6.857-2.661 6.857-10.568 0-4.661-.436-6.517-1.829-7.777-2.298-2.08-6.06-2.121-8.948-.098m65.05 1.152c-2.432 3.716-2.327 12.469.184 15.243 2.635 2.912 8.895 2.812 10.986-.175 2.378-3.394 2.101-13.233-.443-15.777-3.051-3.051-8.502-2.69-10.727.709m36.387-.886c-2.498 2.761-3.161 10.041-1.317 14.456 1.323 3.166 2.02 3.721 4.672 3.721 6.21 0 6.985-1.156 6.985-10.428 0-6.699-.314-8.479-1.582-8.965-3.029-1.163-7.119-.595-8.758 1.216m35.613.886c-2.432 3.716-2.327 12.469.184 15.243 2.635 2.912 8.895 2.812 10.986-.175 2.378-3.394 2.101-13.233-.443-15.777-3.051-3.051-8.502-2.69-10.727.709"/></svg>